<?xml version="1.0"?>
<svg width="640" height="480" xmlns="http://www.w3.org/2000/svg" xmlns:se="http://svg-edit.googlecode.com">
 <!-- Created with SVG-edit - http://svg-edit.googlecode.com/ -->
 <g>
  <title>Layer 1</title>
  <polyline opacity="0.75" se:connector="svg_40 svg_37" fill="none" stroke-width="5" stroke="#000000" points="249.5165252685547,102.5 250.397705078125,99.54647827148438 251.27886962890625,96.59294891357422" id="svg_61"/>
  <ellipse id="svg_7" cy="366" cx="245" opacity="0.375" stroke-width="5" stroke="#000000" fill="#0000ff"/>
  <ellipse id="svg_8" cy="405" cx="95" opacity="0.75" stroke-width="5" stroke="#000000" fill="#0000ff"/>
  <path d="m374,114c-1,0 -3,0 -4,0c-1,0 -6,0 -9,0c-1,0 -4.448059,-1.577194 -7,0c-1.9021,1.175568 -4.012909,1.839821 -5,2c-3.121429,0.506538 -5,1 -6,1c-3,0 -4,0 -6,0c-3,0 -4,1 -7,1c-1,0 -4,0 -5,0c-2,0 -5.076111,0.617317 -6,1c-2.613129,1.08239 -3.012909,1.839821 -4,2c-3.121429,0.506538 -4.647491,1.972511 -9,3c-0.973236,0.229752 -3.538696,1.60643 -6,3c-3.587921,2.031448 -4.292908,1.292892 -5,2c-1.414215,1.414215 -1.292908,2.292892 -2,3c-0.707092,0.707108 -1.418854,1.418854 -3,3c-3.162292,3.162277 -3.679626,5.025818 -4,7c-0.506531,3.121445 -3.2565,2.796997 -4,4c-1.662506,2.689987 -1,4 -1,6c0,1 0,2 0,4c0,1 0,3 0,4c0,3 -2.121307,4.878677 0,7c0.707092,0.707108 0.710205,2.042908 1,3c1.04483,3.450851 3.917603,3.386871 5,6c1.530731,3.695511 2.585785,4.585785 4,6c0.707092,0.707108 0.61731,3.076126 1,4c1.082397,2.613129 3.824432,1.097885 5,3c0.525726,0.850647 0.418854,4.418854 2,6c1.581146,1.581146 3.186005,2.692551 5,4c1.147278,0.826904 0.418854,4.418854 2,6c1.581146,1.581146 6,2 6,4c0,1 0.95517,2.549149 2,6c0.289795,0.957092 0.493469,3.878555 1,7c0.160187,0.987091 0,2 0,4c0,1 0.0979,1.824432 2,3c1.701294,1.051468 1.234619,1.152237 2,3c0.541199,1.306564 1,2 1,5c0,2 1.839813,5.012909 2,6c0.506531,3.121445 1,4 1,6c0,1 0,2 0,5c0,2 -2,5 -2,6c0,3 -2.458801,2.693451 -3,4c-1.148041,2.771637 -1,4 -1,6c0,1 -1.839813,3.012909 -2,4c-0.506531,3.121429 -1.418854,4.418854 -3,6c-1.581146,1.581146 -3.486267,5.823761 -4,8c-0.459503,1.946503 -2.21167,2.714111 -5,5c-1.093658,0.896606 -2.085815,1.420441 -4,2c-3.450836,1.04483 -6.31076,3.534912 -8,5c-2.388947,2.07193 -5,1 -7,1c-2,0 -2.878571,0.493469 -6,1c-1.974182,0.320374 -4,0 -6,0c-1,0 -3,0 -4,0c-3,0 -5.878571,-0.493469 -9,-1c-0.987091,-0.160187 -4.10701,0.919006 -8,0c-2.176254,-0.513733 -1.585785,-1.585785 -3,-3c-0.707108,-0.707092 -3,0 -4,0c-2,0 -3,0 -5,0c-1,0 -1.823746,-0.486267 -4,-1c-0.973251,-0.229767 -1.152237,-0.234619 -3,-1c-2.613129,-1.082397 -4.105576,-3.552795 -5,-4c-4.472137,-2.236053 -4.692551,-5.186005 -6,-7c-0.826904,-1.147278 -3,-3 -4,-3c-2,0 -2.097885,-0.824432 -4,-2c-1.701309,-1.051453 -3.714127,-2.21167 -6,-5c-0.896591,-1.093658 -3,-3 -3,-4l-1,0" id="svg_20" opacity="0.75" stroke-linecap="round" stroke-linejoin="null" stroke-dasharray="null" stroke-width="5" stroke="#00bf00" fill="none"/>
  <path d="m376,159c0,2 -1,2 -2,2c-2,0 -3,0 -4,0c-2,0 -3,0 -5,0c-1,0 -3,0 -4,0c-1,0 -3,0 -4,0c-2,0 -3,0 -4,0c-2,0 -2.292908,0.292892 -3,1c-1.414215,1.414215 -2.61731,3.076126 -3,4c-0.541199,1.306564 -1.851959,4.228363 -3,7c-1.082397,2.613129 -1.585785,4.585785 -3,6c-1.414215,1.414215 -2.076111,0.61731 -3,1c-2.613129,1.082397 -2.458801,2.693436 -3,4c-0.765381,1.847763 0.051453,3.298691 -1,5c-1.175568,1.902115 -2,3 -2,5c0,2 -0.486267,2.823746 -1,5c-0.68927,2.919754 0,4 0,5c0,3 0,5 0,6c0,1 0,4 0,6c0,3 0,4 0,5c0,3 0,6 0,7c0,2 0,3 0,5c0,1 0.585785,1.585785 2,3c0.707092,0.707108 -0.307465,2.186005 1,4c0.826904,1.147263 1.824432,2.097885 3,4c1.577179,2.551956 0,4 0,7c0,2 -0.098541,3.004868 0,4c0.502441,5.074219 1,6 1,8c0,2 0,4 0,7c0,2 0,5 0,7c0,1 -1,3 -1,4c0,1 0,3 0,4c0,2 0.459503,3.053497 0,5c-0.513733,2.176239 -0.710205,4.042908 -1,5c-1.04483,3.450836 -1.692535,4.186005 -3,6c-2.480713,3.441803 -4.298706,2.948547 -6,4c-1.9021,1.175568 -3,3 -4,3c-2,0 -3,0 -4,0c-2,0 -6,1 -8,1c-1,0 -1.386871,0.917603 -4,2c-2.771637,1.148041 -5,0 -7,0c-1,0 -3,0 -4,0c-2,0 -4.186005,-0.307465 -6,1c-1.147278,0.826904 -3,1 -4,1c-1,0 -3,0 -6,0c-1,0 -3.0979,0.824432 -5,2c-1.701294,1.051453 -5,0 -6,0c-2,0 -2.292908,0.292908 -3,1c-0.707092,0.707092 -3,0 -4,0c-2,0 -3,0 -4,0c-2,0 -3.152237,0.765381 -5,0c-1.306564,-0.541199 -3.292892,-1.292908 -4,-2c-1.414215,-1.414215 -1,-3 -4,-3c-2,0 -1.585785,-1.585785 -3,-3c-1.414215,-1.414215 -3.878555,-0.493469 -7,-1c-1.974182,-0.320374 -2.878555,-0.493469 -6,-1c-0.987091,-0.160187 -3.076126,-0.61731 -4,-1c-2.613129,-1.082397 -2.852737,-2.173096 -4,-3c-1.813995,-1.307465 -2.386871,-1.917603 -5,-3c-0.923874,-0.38269 -4.026749,0.229767 -5,0c-2.176254,-0.513733 -2.823746,-3.486267 -5,-4c-0.973251,-0.229767 -2,0 -2,-1c0,-2 0,-3 0,-5c0,-1 0,-4 -2,-5l-1,-2l-1,-1" id="svg_21" opacity="0.75" stroke-linecap="round" stroke-linejoin="null" stroke-dasharray="null" stroke-width="5" stroke="#00bf00" fill="none"/>
  <path d="m375,114c0,-1 0.765381,-2.152245 0,-4c-0.541199,-1.306564 -1,-3 -1,-4c0,-1 1,-1 2,-1c1,0 3,0 4,0c2,0 3,0 5,0c1,0 2.585785,-1.414215 4,0c1.414215,1.414215 0.486267,2.823746 1,5c0.229767,0.973251 0,2 0,4c0,1 0,3 0,4c0,2 0,3 0,4c0,2 -0.234619,3.152245 -1,5c-0.541199,1.306564 -2.0979,1.824432 -4,3c-1.701294,1.051468 -2.292908,0.292892 -3,1c-1.414215,1.414215 -2.693451,0.458801 -4,1c-1.847748,0.765366 -2.386871,0.917603 -5,2c-0.923889,0.38269 -2,0 -4,0c-1,0 -3,0 -4,0c-2,0 -2.0979,1.824432 -4,3c-1.701294,1.051468 -3,1 -7,1c-2,0 -4.61731,0.076126 -5,1c-0.541199,1.306564 -3.149353,0.474274 -4,1c-1.9021,1.175568 -3,2 -3,3c0,2 0,3 1,3c1,0 1.585785,0.585785 3,2c0.707092,0.707108 2.770233,0.026749 3,1c0.513733,2.176254 3,2 3,3c0,2 0.61731,2.076126 1,3c0.541199,1.306564 3,1 4,1c2,0 3,0 4,0c2,0 3,2 5,2c1,0 3.292908,-0.707108 4,0c0.707092,0.707108 0,3 1,3l0,1" id="svg_22" opacity="0.75" stroke-linecap="round" stroke-linejoin="null" stroke-dasharray="null" stroke-width="5" stroke="#00bf00" fill="none"/>
  <path d="m208,276c-1,0 -2.292892,-0.292908 -3,-1c-0.707108,-0.707092 -1.486252,-0.823761 -2,-3c-0.229752,-0.973236 -0.585785,-1.585785 -2,-3c-0.707108,-0.707092 -3,0 -4,0c-2,0 -3,0 -3,1c0,2 0,3 0,4c0,2 0.292892,2.292908 1,3c1.414215,1.414215 0,3 1,3l0,2l2,0l1,1" id="svg_23" opacity="0.75" stroke-linecap="round" stroke-linejoin="null" stroke-dasharray="null" stroke-width="5" stroke="#00bf00" fill="none"/>
  <path d="m324,111c-2,-1 0,-1 1,-1c2,0 3,-2 3,-3c0,-1 -0.458801,-3.306564 -1,-2c-0.38269,0.923882 -1,1 -1,3l0,1" id="svg_24" opacity="0.75" stroke-linecap="round" stroke-linejoin="null" stroke-dasharray="null" stroke-width="5" stroke="#000000" fill="none"/>
  <path d="m346,105c-2,0 -3,0 -4,0c-2,0 -3,0 -3,1c0,2 1.292908,2.707108 2,2c0.707092,-0.707108 0,-2 0,-4c0,-1 0.229767,-2.973251 0,-2c-0.513733,2.176254 -1,3 -1,4l1,0" id="svg_25" opacity="0.75" stroke-linecap="round" stroke-linejoin="null" stroke-dasharray="null" stroke-width="5" stroke="#000000" fill="none"/>
  <path d="m300,180c0,0 2.292908,-0.707108 3,0c0.707092,0.707108 0.585785,1.585785 2,3c0.707092,0.707108 3,0 3,1c0,1 1,1 1,-1l0,-1l0,-2l1,0" id="svg_26" opacity="0.75" stroke-linecap="round" stroke-linejoin="null" stroke-dasharray="null" stroke="#000000" fill="none"/>
  <path d="m315,180c1,0 2,0 4,0c1,0 1.585785,1.585785 3,3c0.707092,0.707108 1.513,1.406006 3,-1c1.662506,-2.689987 2,-5 2,-6c0,-1 2,-3 3,-3l2,-1l1,0" id="svg_27" opacity="0.75" stroke-linecap="round" stroke-linejoin="null" stroke-dasharray="null" stroke="#000000" fill="none"/>
  <path d="m310,191c0,1 2.917603,0.386871 4,3c0.38269,0.923874 0,3 2,3c1,0 0,-3 1,-3c1,0 2.292908,-0.292892 3,-1c0.707092,-0.707108 0,-3 2,-4l0,-2l0,-1l1,0" id="svg_28" opacity="0.75" stroke-linecap="round" stroke-linejoin="null" stroke-dasharray="null" stroke="#000000" fill="none"/>
  <path d="m316,202c0,2 -1.414215,3.585785 0,5c0.707092,0.707108 1.292908,0.292892 2,1c1.414215,1.414215 3,0 5,-4l0,-2l0,-3l0,-2" id="svg_29" opacity="0.75" stroke-linecap="round" stroke-linejoin="null" stroke-dasharray="null" stroke="#000000" fill="none"/>
  <path d="m300,171c0,0 0,2 2,2c1,0 3.292908,-0.707108 4,0c0.707092,0.707108 0.585785,0.585785 2,2c2.121307,2.121323 0.173096,5.147263 1,4c1.307465,-1.813995 2.292908,-2.292892 3,-3c0.707092,-0.707108 2.292908,-0.292892 3,-1c0.707092,-0.707108 1.292908,-1.292892 2,-2c0.707092,-0.707108 0,-3 0,-4l0,-2l0,-1" id="svg_30" opacity="0.75" stroke-linecap="round" stroke-linejoin="null" stroke-dasharray="null" stroke="#000000" fill="none"/>
  <path d="m322,170c0,1 1,1 3,1c1,0 2,0 4,0c1,0 3.458801,0.306564 4,-1c0.38269,-0.923874 4.152252,-3.234634 6,-4c1.306549,-0.541199 1,-3 3,-3l0,-3l1,-1l0,-1" id="svg_31" opacity="0.75" stroke-linecap="round" stroke-linejoin="null" stroke-dasharray="null" stroke="#000000" fill="none"/>
  <path d="m318,84c1,0 0.823761,1.486259 3,2c0.973236,0.229752 1.585785,-0.414215 3,1c1.414215,1.414215 0.149353,2.474266 1,3c1.9021,1.175568 1,3 1,4c0,2 1.292908,2.292892 2,3c0.707092,0.707108 2.292908,2.292892 3,3c0.707092,0.707108 1,2 3,2c1,0 1.61731,-0.076118 2,-1c1.082397,-2.613129 3,-3 3,-5c0,-1 1.31076,-2.534927 3,-4c2.388947,-2.07193 3.474274,-3.149345 4,-4c1.175568,-1.902115 2,-3 2,-4c0,-2 0,-3 0,-5l0,-1l0,-1l2,0" id="svg_32" opacity="0.75" stroke-linecap="round" stroke-linejoin="null" stroke-dasharray="null" stroke="#000000" fill="none"/>
  <path d="m385,130c0,2 0,3 0,5c0,1 -0.298706,0.948532 -2,2c-1.9021,1.175568 -2,2 -4,2c-1,0 -3.292908,-0.292892 -4,-1c-0.707092,-0.707108 -1.824432,-2.097885 -3,-4c-1.051453,-1.701309 -0.292908,-3.707108 -1,-3c-0.707092,0.707108 0,2 0,4c0,1 1.414215,2.585785 0,4c-1.414215,1.414215 -3,0 -5,0c-1,0 -2.0979,-2.175568 -4,-1c-0.850647,0.525726 0,2 0,4c0,1 0,3 -1,3c-2,0 -2.076111,-0.61731 -3,-1c-2.613129,-1.082397 -2.292908,-2.292892 -3,-3c-0.707092,-0.707108 -3,-1 -4,-1l-2,-1" id="svg_33" opacity="0.75" stroke-linecap="round" stroke-linejoin="null" stroke-dasharray="null" stroke="#000000" fill="none"/>
  <path d="m354,152c0,0 -1.051453,-1.298691 0,-3c1.175568,-1.902115 2,-2 3,-2c2,0 3,0 3,2c0,1 -0.707092,3.292892 0,4c1.414215,1.414215 2.292908,-0.292892 3,-1c0.707092,-0.707108 1.585785,0.414215 3,-1c1.414215,-1.414215 0,-3 0,-2c0,1 0,3 0,4c0,2 -0.459503,2.946503 0,1c0.513733,-2.176254 1,-3 3,-3c1,0 2.186005,-1.692551 4,-3c1.147278,-0.826904 3,-1 3,1c0,3 0,4 -1,4l0,2l0,1" id="svg_34" opacity="0.75" stroke-linecap="round" stroke-linejoin="null" stroke-dasharray="null" stroke-width="null" stroke="#000000" fill="none"/>
  <path d="m295,314c0,2 0,3 0,4c0,2 0,3 0,6c0,2 -1,4 -1,6c0,3 -1,5 -1,7c0,1 -1.770233,3.026764 -2,4c-0.513733,2.176239 -0.61731,3.076111 -1,4c-1.082397,2.613129 -2,3 -2,5c0,1 0,2 0,4c0,1 3,1 4,1c2,0 3,0 4,0c2,0 3,0 5,0c1,0 2,0 4,0l1,0l2,0l0,1" id="svg_35" opacity="0.75" stroke-linecap="round" stroke-linejoin="null" stroke-dasharray="null" stroke="#000000" fill="none"/>
  <path d="m329,307c0,2 0,3 0,5c0,1 0,3 0,4c0,3 -1,4 -1,7c0,3 0,4 0,7c0,6 -1,9 -1,13c0,1 -0.95517,2.549164 -2,6c-0.289795,0.957092 0,5 0,7c0,1 0,3 0,4c0,3 -1.414215,4.585785 0,6c0.707092,0.707092 2,0 3,-1c2,-2 4,-2 5,-2c2,0 3,0 5,0c1,0 4.026764,0.229767 5,0c2.176239,-0.513733 3,-1 4,-1l2,0l1,0l2,0" id="svg_36" opacity="0.75" stroke-linecap="round" stroke-linejoin="null" stroke-dasharray="null" stroke="#000000" fill="none"/>
  <path d="m284,138.633102c-3.988098,3.624725 -2.964294,1.198181 -3.952362,1.198181c-0.988098,0 -2.964294,0 -3.952393,-1.198181c-1.976196,-2.396378 -2.002655,-3.319275 -2.964294,-3.594559c-2.150299,-0.61557 -2.390045,-1.700058 -3.952362,-3.594574c-1.562347,-1.894501 -1.598053,-3.685745 -1.976227,-4.792732c-0.534729,-1.565491 -2.964264,-1.198189 -2.964264,-3.594566c0,-1.198189 -1.277527,-0.350922 -1.976196,-1.198189c-1.397369,-1.694489 -2.265594,-1.54911 -2.964294,-2.396362c-0.698669,-0.847244 -0.480469,0.211174 -2.964264,-3.594559c-0.22702,-1.166138 -1.277527,-1.549133 -1.976196,-2.396385c-0.698685,-0.847237 -1.277512,-1.54911 -1.976196,-2.396355c-0.698685,-0.847252 -1.976181,-1.198189 -1.976181,-3.594566c0,-1.198189 -0.988113,-3.594559 -0.988113,-4.792747c0,-1.198181 0,-3.594559 -0.988083,-3.594559c-1.976196,0 -2.964279,0 -4.940475,0c0.011902,0 -1.976196,0 -3.952393,0c1.505966,0.679634 2.114243,1.121925 1.671356,1.322929c-0.442886,0.201004 5.315491,3.200958 2.616791,2.915489c3.301315,4.01889 2.133377,2.447556 -1.905563,1.314384c1.838425,3.638344 -4.401855,2.499275 -9.29924,2.834503c-1.397385,1.694504 -2.964279,1.198189 -4.940475,1.198189c-0.988098,0 -1.78476,1.457047 -4.940475,1.198189c-1.950684,0.383858 -2.940475,-0.362579 -3.952393,0c-2.964264,0 -4.94046,0 -9.880936,0c-1.976196,0 -2.964294,0 -4.940475,0c-0.988113,0 -2.964294,0 -2.964294,2.396362c0,1.198181 0.289413,1.549133 0.988098,2.396378c1.397385,1.694504 1.976196,2.39637 2.964294,2.39637c1.976181,0 0.578796,1.900063 1.976181,3.594559c0.6987,0.847252 1.976196,0 4.940475,0c1.976196,0 3.543091,1.694496 4.940475,0c0.698685,-0.847237 1.063309,-0.739662 1.976181,-1.198181c2.582047,-1.296906 1.976212,-1.198189 1.976212,1.198181c0,1.198181 0,3.594559 0,4.792747c0,1.198189 0,3.594559 0.988083,3.594559c1.976181,0 2.964294,0 3.952393,0c1.976181,0 3.543091,1.694489 4.940475,0c0.698669,-0.847244 0,-2.39637 0.988083,-2.39637c1.976196,0 1.749176,1.230232 1.976196,2.39637c0.507629,2.607559 1.976196,3.594559 3.952377,3.594559c0.988083,0 2.964294,0 3.952377,0c0.988098,0 2.964279,1.198181 3.952393,1.198181c1.976181,0 2.964279,0 4.940475,0c0.988083,0 0.988083,-2.396378 1.976181,-2.396378c1.976196,0 2.964294,0 2.964294,1.198196c0,1.198181 0,3.594559 0,4.792755c0,3.594559 0,5.990921 0,7.189102c0,1.198196 0,3.594574 0,4.792755c0,2.396378 1.976166,2.396378 2.964294,2.396378c1.976196,0 3.832489,2.541733 5.928558,0c0.698669,-0.84726 -0.409271,-1.90007 0.988068,-3.594559c1.39743,-1.694504 1.976196,-1.198196 2.964294,-1.198196c0.988129,0 0.988129,-1.198181 2.964325,-1.198181c0.988068,0 2.964264,0 3.952362,0c1.976196,0 2.964264,0 3.952393,0l1.976166,-1.198196" id="svg_37" opacity="0.75" stroke-linecap="round" stroke-linejoin="null" stroke-dasharray="null" stroke-width="5" stroke="#000000" fill="none"/>
  <path d="m293,125c0,-1 -1.0979,-1.824432 -3,-3c-0.850647,-0.525734 -1,-1 -1,-3c0,-1 0,-4 0,-5c0,-2 0,-3 0,-5c0,-1 -0.292908,-3.292892 -1,-4c-1.414215,-1.414215 -3,0 -3,-1c0,-2 -0.585785,-1.585785 -2,-3c-1.414215,-1.414215 -1,-2 -1,-3c0,-1 0,-3 0,-4c0,-2 0,-3 0,-5c0,-1 0,-4 0,-5c0,-2 0,-3 1,-3c1,0 1.585785,-1.585785 3,-3c0.707092,-0.707108 0.0979,-1.824432 2,-3c1.701294,-1.05146 3.585785,0.414215 5,-1c1.414215,-1.414215 0,-3 0,-4c0,-2 -0.9021,-3.824432 1,-5c0.850647,-0.525734 3.292908,-0.707108 4,0c0.707092,0.707108 2,3 2,4c0,1 0,3 0,4c0,2 0.765381,3.152245 0,5c-0.541199,1.306564 -4,0 -4,1c0,1 2.585785,-1.414215 4,0c0.707092,0.707108 0,3 0,4c0,2 0.707092,3.292892 0,4c-0.707092,0.707108 -3.458801,1.693436 -4,3c-0.765381,1.847755 0,3 0,5c0,1 0.292908,1.292892 1,2c1.414215,1.414215 -0.9021,3.824432 1,5c1.701294,1.05146 2,1 2,2c0,2 1,3 1,5c0,1 -0.707092,3.292892 0,4c0.707092,0.707108 3,1 3,3c0,1 0,3 0,4l0,2l0,1l-1,0" id="svg_38" opacity="0.75" stroke-linecap="round" stroke-linejoin="null" stroke-dasharray="null" stroke-width="5" stroke="#000000" fill="none"/>
  <path d="m241,97c0,-1 0,-2 0,-5c0,-2 0,-4 0,-6l-3,-1l0,-2l0,-1" id="svg_39" opacity="0.75" stroke-linecap="round" stroke-linejoin="null" stroke-dasharray="null" stroke-width="5" stroke="#000000" fill="none"/>
  <path d="m246,100c1,-1 2.70546,-2.346191 5,-4c1.813995,-1.307449 5.292908,-3.292892 6,-4c1.414215,-1.414215 2,-3 2,-6l0,-1" id="svg_40" opacity="0.75" stroke-linecap="round" stroke-linejoin="null" stroke-dasharray="null" stroke-width="5" stroke="#000000" fill="none"/>
  <path d="m253,105c1,0 3,0 6,0l1,0l1,0" id="svg_41" opacity="0.75" stroke-linecap="round" stroke-linejoin="null" stroke-dasharray="null" stroke-width="5" stroke="#000000" fill="none"/>
  <path d="m283,78c-1,0 -3,0 -4,0c-1,0 -1,-2 -3,-2l0,-1l-1,-2" id="svg_42" opacity="0.75" stroke-linecap="round" stroke-linejoin="null" stroke-dasharray="null" stroke-width="5" stroke="#000000" fill="none"/>
  <path d="m275,86c-2,0 -3,0 -5,0l-1,0l-1,0" id="svg_43" opacity="0.75" stroke-linecap="round" stroke-linejoin="null" stroke-dasharray="null" stroke-width="5" stroke="#000000" fill="none"/>
  <path d="m277,91c-1,0 -2,0 -4,0l-1,0" id="svg_44" opacity="0.75" stroke-linecap="round" stroke-linejoin="null" stroke-dasharray="null" stroke-width="5" stroke="#000000" fill="none"/>
  <path d="m278,167c-1,0 -2.61731,-0.076126 -3,-1c-1.082397,-2.613129 -2,-3 -4,-3c-1,0 -2,0 -4,0c-1,0 -1,1 -1,2c0,2 -1,2 -1,3c0,1 0,3 0,4c0,2 0,3 -1,3c-1,0 -3,0 -4,0c-2,0 -3.585785,-1.414215 -5,0c-0.707108,0.707108 -1,1 -2,1c-2,0 -2,2 -3,2c-2,0 -1.585785,1.585785 -3,3c-1.414215,1.414215 -0.585785,1.585785 -2,3c-0.707108,0.707108 -1.474274,0.149353 -2,1c-1.175568,1.902115 -2.292892,2.292892 -3,3c-0.707108,0.707108 -2,3 -2,4c0,2 -1,2 -1,3c0,1 -0.229752,3.026749 0,4c0.513748,2.176254 1.292892,2.292892 2,3c0.707108,0.707108 2.292892,0.292892 3,1c1.414215,1.414215 1.824432,1.097885 3,3c1.051468,1.701309 1,2 3,2c1,0 3.292892,-0.707108 4,0c0.707108,0.707108 0,3 0,4c0,1 0.707108,3.292892 0,4c-0.707108,0.707108 -2.585785,0.585785 -4,2c-0.707108,0.707108 0.414215,1.585785 -1,3c-1.414215,1.414215 -3,0 -3,1c0,1 -0.707108,3.292892 0,4c1.414215,1.414215 2,2 3,2c2,0 1.292892,1.292892 2,2c0.707108,0.707108 1,2 3,2c1,0 2,0 2,1c0,2 -2.292892,1.292892 -3,2c-0.707108,0.707108 -0.585785,1.585785 -2,3c-0.707108,0.707108 -2.292892,0.292892 -3,1c-0.707108,0.707108 -1,1 -1,3c0,1 0,3 0,4c0,1 0.234634,1.152237 1,3c0.541199,1.306564 2.292892,3.292892 3,4c0.707108,0.707108 3,0 4,0c1,0 1,-1 1,-2c0,-2 2,-2 2,-3c0,-1 -0.414215,-0.414215 1,1c1.414215,1.414215 3,0 5,0c1,0 2,-2 1,-2c-2,0 0,3 1,3c2,0 2.292908,-1.292892 3,-2c0.707092,-0.707108 0.585785,-1.585785 2,-3c0.707092,-0.707108 0.292908,-2.292892 1,-3c0.707092,-0.707108 -0.765381,-2.152237 0,-4c0.541199,-1.306564 1,-3 1,-4c0,-2 -2,-2 -3,-2c-2,0 -2,-1 -2,-2c0,-2 0,-3 0,-5c0,-1 1.292908,-2.292892 2,-3c0.707092,-0.707108 0,-2 0,-4c0,-1 0,-3 0,-4c0,-1 -1,-1 -3,-1c-1,0 -1.093658,-2.103409 0,-3c2.78833,-2.285873 4.292908,-2.292892 5,-3c1.414215,-1.414215 2.292908,-1.292892 3,-2c0.707092,-0.707108 0,-2 0,-4c0,-1 0,-3 0,-4c0,-1 0,-3 0,-4c0,-2 -1.292908,-2.292892 -2,-3c-1.414215,-1.414215 -1.585785,-1.585785 -3,-3c-2.121307,-2.121323 1.292908,-2.292892 2,-3c0.707092,-0.707108 2,-1 2,-3c0,-1 0,-3 1,-3c2,0 2.292908,-1.292892 3,-2c1.414215,-1.414215 2.458801,-1.693436 3,-3c0.765381,-1.847763 1,-3 3,-4l0,-1" id="svg_45" opacity="0.75" stroke-linecap="round" stroke-linejoin="null" stroke-dasharray="null" stroke-width="5" stroke="#000000" fill="none"/>
  <path d="m255,190c0,0 0,1 0,2c0,2 -0.707108,3.292892 0,4c0.707108,0.707108 3,0 4,0l2,0l1,0l1,0" id="svg_46" opacity="0.75" stroke-linecap="round" stroke-linejoin="null" stroke-dasharray="null" stroke-width="5" stroke="#000000" fill="none"/>
  <path d="m259,219c0,0 0,1 0,2l0,1l0,2l0,1" id="svg_47" opacity="0.75" stroke-linecap="round" stroke-linejoin="null" stroke-dasharray="null" stroke-width="5" stroke="#000000" fill="none"/>
  <path d="m398,124c1,0 2,0 4,0c1,0 2.292908,-0.292892 3,-1c0.707092,-0.707108 1.292908,-0.292892 2,-1c1.414215,-1.414215 1.585785,-0.585785 3,-2c1.414215,-1.414215 2.292908,-0.292892 3,-1c0.707092,-0.707108 0.878693,-3.878677 3,-6c0.707092,-0.707108 3.026764,0.229752 4,0c2.176239,-0.513741 3.458801,-0.693436 4,-2c0.38269,-0.923882 2.549164,-1.95517 6,-3c1.914185,-0.579567 1.585785,-1.585785 3,-3c0.707092,-0.707108 1.769165,-1.423592 3,-3c2.537415,-3.249855 4.549164,-2.95517 8,-4c2.871277,-0.869354 5.076111,0.382683 6,0c1.306549,-0.541199 3.042908,-0.710213 4,-1c3.450836,-1.04483 6,-2 9,-2c1,0 3,0 4,0c1,0 3,0 4,0c2,0 3,0 3,1c0,2 -0.415283,2.188759 -1,3c-1.84903,2.565376 -4.106995,2.080986 -8,3c-2.176239,0.513741 -4.292908,3.292892 -5,4c-0.707092,0.707108 -5.152252,1.234634 -7,2c-1.306549,0.541199 -2.298706,0.94854 -4,2c-1.9021,1.175568 -1,3 -1,5c0,1 1,1 2,1c1,0 3.549164,1.95517 7,3c0.957092,0.289787 3,1 7,1c2,0 4,2 7,2c2,0 3,0 5,0c1,0 1.761078,0.415894 5,2c2.840729,1.389351 4.458801,0.693436 5,2c0.765381,1.847755 -2.309998,1.337494 -5,3c-4.812012,2.973984 -7.087433,4.79393 -12,7c-2.039825,0.916016 -5.549164,1.95517 -9,3c-3.828369,1.159134 -6.06601,-0.122345 -8,1c-3.118469,1.809723 -5.228363,0.851944 -8,2c-1.306549,0.541199 -2.585785,0.585785 -4,2c-1.414215,1.414215 1.012909,1.839813 2,2c3.121429,0.506546 4.692535,1.186005 6,3c2.480713,3.441803 1.763947,4.763931 4,7c2.236053,2.236069 5.292908,2.292892 6,3c0.707092,0.707108 -1.121307,1.878677 1,4c1.414215,1.414215 3.377502,2.830582 5,4c2.565369,1.849014 2.234619,4.152237 3,6c0.541199,1.306564 2,3 2,4c0,2 0.486267,3.823746 1,6c0.229767,0.973251 0.176239,3.486252 -2,4c-2.919739,0.689255 -3.878571,0.493454 -7,1c-2.961273,0.480545 -4,0 -6,0c-1,0 -2.298706,1.051468 -4,0c-1.9021,-1.175568 -1,-3 -3,-3c-3,0 -3.292908,-2.292892 -4,-3c-0.707092,-0.707108 -0.31076,-1.534927 -2,-3c-2.388947,-2.07193 -2.823761,-3.486252 -5,-4c-0.973236,-0.229752 -2,0 -4,0c-1,0 -3,0 -4,0c-2,0 -1,-2 -3,-2c-1,0 0.234619,1.152237 1,3c0.541199,1.306564 3,4 4,5c3,3 4.292908,6.292892 5,7c2.121307,2.121323 5.188751,2.415283 6,3c2.565369,1.849014 1.585785,3.585785 3,5c0.707092,0.707108 0,2 0,5c0,3 -1,4 -2,4c-2,0 -3,0 -6,0c-1,0 -4,0 -7,0c-3,0 -6.549164,-3.95517 -10,-5c-1.914185,-0.579575 -4.309998,-2.337494 -7,-4c-2.406006,-1.487 -2.418854,-3.418854 -4,-5c-1.581146,-1.581146 -3.152252,-3.234634 -5,-4c-1.306549,-0.541199 -4,-3 -5,-4c-1,-1 -3.493469,-2.878555 -4,-6c-0.160187,-0.987091 -2,-3 -3,-3c-2,0 -3,0 -4,0c-2,0 -2.026764,-0.770248 -3,-1c-2.176239,-0.513748 -2.076111,-2.61731 -3,-3c-1.306549,-0.541199 -1,-3 -1,-4c0,-2 0,-3 0,-4l0,-2" id="svg_48" opacity="0.75" stroke-linecap="round" stroke-linejoin="null" stroke-dasharray="null" stroke-width="5" stroke="#ff0000" fill="none"/>
  <path d="m399,134c0,0 0,1 1,1c3,0 7,0 8,0c5,0 7.585785,1.414215 9,0c1.414215,-1.414215 0.823761,-5.486252 3,-6c0.973236,-0.229752 3,-1 4,-1c1,0 1,-1 3,-1c1,0 0.693451,-2.458801 2,-3c0.923889,-0.382683 3.292908,0.707108 4,0c1.414215,-1.414215 1,-3 3,-3c1,0 1,1 0,1c-1,0 -3.823761,4.486259 -6,5c-0.973236,0.229752 -2.770233,2.026749 -3,3c-0.513733,2.176254 -1.707092,3.292892 -1,4c0.707092,0.707108 2,0 4,0c1,0 3.757111,-0.986923 10,-2c0.987091,-0.160187 2,0 4,0c1,0 1,-1 0,-1c-1,0 -3.549164,0.95517 -7,2c-0.957092,0.28978 -2.95517,0.549149 -4,4c-0.579559,1.914185 -3.412079,3.968552 -7,6c-3.691956,2.090347 -4.418854,6.418854 -6,8c-1.581146,1.581146 -1,3 -1,4c0,2 -1.414215,3.585785 0,5c0.707092,0.707108 2,0 4,0c1,0 2,0 5,0c2,0 5,0 6,0c1,0 3,0 4,0c2,0 3,1 3,4c0,2 0,3 -1,3c-1,0 -3,0 -4,0c-1,0 -4,0 -7,0c-4,0 -9,1 -12,1c-1,0 -2,0 -4,0c-1,0 -3,0 -4,0c-1,0 -3.82843,3.17157 -1,6c1.414215,1.414215 3.190277,2.881516 5,6c1.122345,1.93399 2.298706,0.948532 4,2c1.9021,1.175568 0,2 -1,2c-2,0 -3.009735,0.197083 -5,0c-5.074219,-0.502441 -6.917603,-1.386871 -8,-4c-1.530731,-3.695511 0,-10 0,-13c0,-5 0,-7 0,-10c0,-1 -0.292908,-1.292892 -1,-2c-1.414215,-1.414215 -3,0 -4,0c-2,0 -3,0 -5,0l-1,0l0,-2l0,-1" id="svg_49" opacity="0.75" stroke-linecap="round" stroke-linejoin="null" stroke-dasharray="null" stroke-width="5" stroke="#ff7f00" fill="none"/>
  <text transform="matrix(3.3333332538604736,0,0,2.0714285373687744,-58.33333134651184,-1.0714285373687744) " xml:space="preserve" text-anchor="middle" font-family="serif" font-size="24" id="svg_52" y="23" x="31" opacity="0.375" stroke-linecap="round" stroke-linejoin="null" stroke-dasharray="null" stroke-width="0" stroke="#000000" fill="#000000"/>
  <text xml:space="preserve" text-anchor="middle" font-family="serif" font-size="24" id="svg_53" y="61" x="10" opacity="0.375" stroke-linecap="round" stroke-linejoin="null" stroke-dasharray="null" stroke-width="0" stroke="#000000" fill="#000000"/>
  <text xml:space="preserve" text-anchor="middle" font-family="serif" font-size="24" id="svg_54" y="20" x="69" opacity="0.375" stroke-linecap="round" stroke-linejoin="null" stroke-dasharray="null" stroke-width="0" stroke="#000000" fill="#000000"/>
  <text xml:space="preserve" text-anchor="middle" font-family="serif" font-size="24" id="svg_55" y="30" x="61" opacity="0.375" stroke-linecap="round" stroke-linejoin="null" stroke-dasharray="null" stroke-width="0" stroke="#000000" fill="#000000"/>
  <text xml:space="preserve" text-anchor="middle" font-family="serif" font-size="24" id="svg_56" y="27" x="74" opacity="0.375" stroke-linecap="round" stroke-linejoin="null" stroke-dasharray="null" stroke-width="0" stroke="#000000" fill="#000000"/>
  <text xml:space="preserve" text-anchor="middle" font-family="serif" font-size="24" id="svg_57" y="33" x="64" opacity="0.375" stroke-linecap="round" stroke-linejoin="null" stroke-dasharray="null" stroke-width="0" stroke="#000000" fill="#000000"/>
  <text xml:space="preserve" text-anchor="middle" font-family="serif" font-size="24" id="svg_58" y="53" x="36" opacity="0.375" stroke-linecap="round" stroke-linejoin="null" stroke-dasharray="null" stroke-width="0" stroke="#000000" fill="#000000"/>
  <text xml:space="preserve" text-anchor="middle" font-family="serif" font-size="24" id="svg_59" y="20" x="-94" opacity="0.375" stroke-linecap="round" stroke-linejoin="null" stroke-dasharray="null" stroke-width="0" stroke="#000000" fill="#000000"/>
  <text xml:space="preserve" text-anchor="middle" font-family="serif" font-size="24" id="svg_60" y="143" x="319" opacity="0.375" stroke-linecap="round" stroke-linejoin="null" stroke-dasharray="null" stroke-width="0" stroke="#000000" fill="#000000"/>
 </g>
</svg>